# xmcd
# Track frame offsets:
# 150
# 9861
# 19711
# 34472
# 44904
# 60599
# 74754
# 93179
# 97948
#
# Disc length: 1461 seconds
# Revision: 0
# Processed by: cddbd v1.5.2PL0 Copyright (c) Steve Scherf et al.
# Submitted via: VisiTrax 2.9.10.228 - For more info visit www.synapsa.com
#
DISCID=7205b309
DTITLE=George Jones - The legend live CD
DYEAR=1900
DGENRE=
TTITLE0=No show Jones
TTITLE1=The race is on
TTITLE2=I always get lucky with you
TTITLE3=The one I loved back then (The corvette song)
TTITLE4=He stopped loving her today
TTITLE5=Who's gonna fill their shoes
TTITLE6=Bartender's blues
TTITLE7=Who's gonna chop my baby's kindlin' (when I'm gone)
TTITLE8=She's my rock
EXTD=
EXTT0=
EXTT1=
EXTT2=
EXTT3=
EXTT4=
EXTT5=
EXTT6=
EXTT7=
EXTT8=
PLAYORDER=
